<?xml version="1.0" encoding="utf-8"?>
<!-- Uploaded to: SVG Repo, www.svgrepo.com, Generator: SVG Repo Mixer Tools -->
<svg width="800px" height="800px" viewBox="0 0 1024 1024" fill="#000000" class="icon"  version="1.1" xmlns="http://www.w3.org/2000/svg"><path d="M808.238 488.008c-4.42 0-8.076-3.578-8.076-7.998s3.5-7.998 7.904-7.998h0.172c4.404 0 7.998 3.578 7.998 7.998s-3.594 7.998-7.998 7.998zM888.214 855.894c-4.422 0-8.076-3.578-8.076-7.998s3.498-7.998 7.904-7.998h0.172c4.404 0 7.996 3.578 7.996 7.998a8 8 0 0 1-7.996 7.998zM88.45 248.082c-4.412 0-8.076-3.578-8.076-7.998s3.5-7.998 7.92-7.998h0.156c4.42 0 7.998 3.578 7.998 7.998s-3.576 7.998-7.998 7.998zM120.44 248.082c-4.412 0-8.076-3.578-8.076-7.998s3.5-7.998 7.92-7.998h0.156c4.42 0 7.998 3.578 7.998 7.998s-3.578 7.998-7.998 7.998zM152.43 248.082c-4.412 0-8.076-3.578-8.076-7.998s3.5-7.998 7.92-7.998h0.156c4.42 0 7.998 3.578 7.998 7.998s-3.578 7.998-7.998 7.998z" fill="" /><path d="M967.706 264.076H55.984a7.994 7.994 0 0 1-7.998-7.998v-15.994c0-13.23 10.762-23.992 23.994-23.992h879.732c13.23 0 23.992 10.762 23.992 23.992v15.994a7.994 7.994 0 0 1-7.998 7.998z m-903.724-15.994h895.726v-7.998c0-4.334-3.654-7.998-7.996-7.998H71.98a8.004 8.004 0 0 0-7.998 7.998v7.998z" fill="" /><path d="M1016.004 344.052c-0.078 0.008-0.204 0-0.312 0H8a7.998 7.998 0 0 1-6.856-12.114l47.984-79.974a8 8 0 0 1 6.858-3.88h911.722c2.81 0 5.42 1.474 6.858 3.88l47 78.336a8 8 0 0 1-5.562 13.752z m-993.878-15.996h979.444l-38.394-63.98H60.514l-38.388 63.98z" fill="" /><path d="M991.698 392.038c-5.638 0-11.136-1.524-15.994-4.366-9.716 5.686-22.276 5.686-31.99 0-9.716 5.686-22.276 5.686-31.99 0-9.716 5.686-22.276 5.686-31.99 0-9.716 5.686-22.276 5.686-31.99 0-9.716 5.686-22.276 5.686-31.99 0-9.716 5.686-22.276 5.686-31.99 0-9.714 5.686-22.274 5.686-31.99 0-9.716 5.686-22.276 5.686-31.99 0-9.714 5.686-22.274 5.686-31.99 0-9.716 5.686-22.276 5.686-31.99 0-9.714 5.686-22.274 5.686-31.99 0-9.716 5.686-22.276 5.686-31.99 0-9.714 5.686-22.274 5.686-31.99 0-9.716 5.686-22.276 5.686-31.99 0-9.714 5.686-22.276 5.686-31.992 0-9.716 5.686-22.274 5.686-31.99 0-9.714 5.686-22.274 5.686-31.99 0-9.714 5.686-22.274 5.686-31.99 0-9.714 5.686-22.274 5.686-31.99 0-9.714 5.686-22.274 5.686-31.99 0-9.714 5.686-22.274 5.686-31.99 0-9.714 5.686-22.274 5.686-31.99 0-9.714 5.686-22.274 5.686-31.99 0-9.714 5.686-22.274 5.686-31.99 0-9.714 5.686-22.274 5.686-31.99 0-9.714 5.686-22.274 5.686-31.99 0-9.714 5.686-22.274 5.686-31.99 0-9.716 5.686-22.274 5.686-31.99 0-9.716 5.686-22.274 5.686-31.99 0a31.666 31.666 0 0 1-15.996 4.366C14.348 392.038 0 377.69 0 360.046v-23.992a7.994 7.994 0 0 1 7.998-7.998h1007.692a7.992 7.992 0 0 1 7.996 7.998v23.992c0.002 17.644-14.354 31.992-31.988 31.992z m-15.994-22.212c1.906 0 3.826 0.678 5.342 2.044 2.998 2.688 6.78 4.172 10.652 4.172 8.826 0 15.996-7.178 15.996-15.996v-15.994H15.996v15.994c0 8.818 7.176 15.996 15.996 15.996 3.874 0 7.654-1.484 10.652-4.172a7.988 7.988 0 0 1 10.684 0c6 5.374 15.308 5.374 21.306 0a7.988 7.988 0 0 1 10.684 0c5.998 5.374 15.308 5.374 21.306 0a7.988 7.988 0 0 1 10.684 0c5.998 5.374 15.308 5.374 21.306 0a7.988 7.988 0 0 1 10.684 0c5.998 5.374 15.308 5.374 21.306 0a7.988 7.988 0 0 1 10.684 0c5.998 5.374 15.308 5.374 21.306 0a7.988 7.988 0 0 1 10.684 0c5.998 5.374 15.308 5.374 21.306 0a7.988 7.988 0 0 1 10.684 0c5.998 5.374 15.308 5.374 21.306 0a7.988 7.988 0 0 1 10.684 0c5.998 5.374 15.308 5.374 21.306 0a7.988 7.988 0 0 1 10.684 0c5.998 5.374 15.308 5.374 21.306 0a7.988 7.988 0 0 1 10.684 0c5.998 5.374 15.308 5.374 21.306 0a7.988 7.988 0 0 1 10.684 0c6 5.374 15.308 5.374 21.306 0a7.988 7.988 0 0 1 10.684 0c6 5.374 15.308 5.374 21.306 0a7.988 7.988 0 0 1 10.684 0c5.998 5.374 15.308 5.374 21.306 0a7.988 7.988 0 0 1 10.684 0c5.998 5.374 15.308 5.374 21.306 0a7.988 7.988 0 0 1 10.684 0c3 2.688 6.78 4.172 10.654 4.172 4.96 0 8.538-2.274 10.654-4.172 3.052-2.716 7.654-2.74 10.684 0 5.998 5.374 15.308 5.374 21.306 0a7.988 7.988 0 0 1 10.684 0c5.998 5.374 15.308 5.374 21.306 0a7.988 7.988 0 0 1 10.684 0c5.998 5.374 15.308 5.374 21.306 0a7.988 7.988 0 0 1 10.684 0c5.998 5.374 15.308 5.374 21.306 0a7.988 7.988 0 0 1 10.684 0c5.998 5.374 15.308 5.374 21.306 0a7.988 7.988 0 0 1 10.684 0c5.998 5.374 15.308 5.374 21.306 0a7.988 7.988 0 0 1 10.684 0c5.998 5.374 15.308 5.374 21.306 0a7.988 7.988 0 0 1 10.684 0c5.998 5.374 15.308 5.374 21.306 0a7.988 7.988 0 0 1 10.684 0c5.998 5.374 15.308 5.374 21.306 0a7.988 7.988 0 0 1 10.684 0c5.998 5.374 15.308 5.374 21.306 0a7.988 7.988 0 0 1 10.684 0c5.998 5.374 15.306 5.374 21.306 0a7.988 7.988 0 0 1 10.684 0c5.998 5.374 15.308 5.374 21.306 0a7.988 7.988 0 0 1 10.684 0c5.998 5.374 15.306 5.374 21.306 0a7.988 7.988 0 0 1 10.684 0c5.998 5.374 15.308 5.374 21.304 0a7.996 7.996 0 0 1 5.35-2.044z" fill="" /><path d="M55.984 903.878a7.992 7.992 0 0 1-7.998-7.996V382.572a7.994 7.994 0 0 1 7.998-7.998 7.994 7.994 0 0 1 7.998 7.998v513.31a7.992 7.992 0 0 1-7.998 7.996zM967.706 903.878a7.992 7.992 0 0 1-7.998-7.996V384.04c0-4.42 3.578-7.996 7.998-7.996s7.998 3.576 7.998 7.996v511.844a7.994 7.994 0 0 1-7.998 7.994z" fill="" /><path d="M967.706 903.878H55.984a7.992 7.992 0 0 1-7.998-7.996 7.994 7.994 0 0 1 7.998-7.998h911.722a7.994 7.994 0 0 1 7.998 7.998c0 4.42-3.58 7.996-7.998 7.996zM919.718 775.918h-143.956a7.992 7.992 0 0 1-7.998-7.996V432.024a7.992 7.992 0 0 1 7.998-7.996h143.956a7.992 7.992 0 0 1 7.998 7.996v335.898a7.992 7.992 0 0 1-7.998 7.996z m-135.956-15.994h127.96V440.022h-127.96v319.902z" fill="" /><path d="M887.73 488.008h-47.986c-4.42 0-7.998-3.578-7.998-7.998s3.578-7.998 7.998-7.998h47.986c4.42 0 7.996 3.578 7.996 7.998s-3.576 7.998-7.996 7.998zM808.238 535.992c-4.42 0-8.076-3.576-8.076-7.996 0-4.422 3.5-7.998 7.904-7.998h0.172a8.004 8.004 0 0 1 7.998 7.998 8.002 8.002 0 0 1-7.998 7.996zM887.73 535.992h-47.986a7.992 7.992 0 0 1-7.998-7.996 7.994 7.994 0 0 1 7.998-7.998h47.986a7.992 7.992 0 0 1 7.996 7.998 7.99 7.99 0 0 1-7.996 7.996zM808.238 583.978c-4.42 0-8.076-3.578-8.076-7.998s3.5-7.998 7.904-7.998h0.172c4.404 0 7.998 3.578 7.998 7.998s-3.594 7.998-7.998 7.998zM887.73 583.978h-47.986c-4.42 0-7.998-3.578-7.998-7.998s3.578-7.998 7.998-7.998h47.986c4.42 0 7.996 3.578 7.996 7.998s-3.576 7.998-7.996 7.998zM839.744 647.958h-31.99c-4.42 0-7.996-3.578-7.996-7.998s3.576-7.998 7.996-7.998h31.99c4.42 0 7.998 3.578 7.998 7.998s-3.578 7.998-7.998 7.998z" fill="" /><path d="M855.738 663.954c-13.228 0-23.992-10.762-23.992-23.992s10.764-23.992 23.992-23.992c13.23 0 23.994 10.762 23.994 23.992s-10.764 23.992-23.994 23.992z m0-31.992c-4.404 0-7.996 3.594-7.996 7.998s3.592 7.998 7.996 7.998c4.406 0 7.998-3.594 7.998-7.998s-3.592-7.998-7.998-7.998z" fill="" /><path d="M887.73 647.958h-15.996c-4.42 0-7.998-3.578-7.998-7.998s3.578-7.998 7.998-7.998h15.996c4.42 0 7.996 3.578 7.996 7.998s-3.576 7.998-7.996 7.998zM887.73 711.94h-31.992a7.992 7.992 0 0 1-7.996-7.998 7.992 7.992 0 0 1 7.996-7.998h31.992a7.992 7.992 0 0 1 7.996 7.998 7.992 7.992 0 0 1-7.996 7.998z" fill="" /><path d="M839.744 727.934c-13.23 0-23.992-10.762-23.992-23.992s10.762-23.992 23.992-23.992 23.992 10.762 23.992 23.992-10.762 23.992-23.992 23.992z m0-31.99a8.014 8.014 0 0 0-7.998 7.998c0 4.404 3.594 7.998 7.998 7.998s7.998-3.594 7.998-7.998a8.014 8.014 0 0 0-7.998-7.998z" fill="" /><path d="M823.75 711.94h-15.996a7.992 7.992 0 0 1-7.996-7.998 7.992 7.992 0 0 1 7.996-7.998h15.996a7.992 7.992 0 0 1 7.996 7.998 7.992 7.992 0 0 1-7.996 7.998zM727.78 695.944h-175.948a7.992 7.992 0 0 1-7.996-7.998V432.024a7.99 7.99 0 0 1 7.996-7.996h175.948a7.992 7.992 0 0 1 7.998 7.996v255.922a7.994 7.994 0 0 1-7.998 7.998z m-167.95-15.994h159.952V440.022h-159.952v239.928z" fill="" /><path d="M679.792 663.954h-79.974c-13.23 0-23.994-10.762-23.994-23.992s10.764-23.992 23.994-23.992h79.974c13.23 0 23.992 10.762 23.992 23.992s-10.76 23.992-23.992 23.992z m-79.974-31.992c-4.404 0-7.998 3.594-7.998 7.998s3.594 7.998 7.998 7.998h79.974c4.406 0 7.998-3.594 7.998-7.998s-3.592-7.998-7.998-7.998h-79.974zM727.78 567.982h-175.948a7.992 7.992 0 0 1-7.996-7.998 7.99 7.99 0 0 1 7.996-7.996h175.948a7.992 7.992 0 0 1 7.998 7.996 7.994 7.994 0 0 1-7.998 7.998z" fill="" /><path d="M727.78 567.982a8.012 8.012 0 0 1-6.404-3.202l-41.582-55.446-41.58 55.446a8.008 8.008 0 0 1-11.202 1.61 8.02 8.02 0 0 1-1.608-11.202l47.984-63.98c3.032-4.03 9.78-4.03 12.808 0l47.986 63.98a8.02 8.02 0 0 1-1.61 11.202 7.966 7.966 0 0 1-4.792 1.592z" fill="" /><path d="M583.822 567.982a8.03 8.03 0 0 1-4.998-1.748 8.012 8.012 0 0 1-1.25-11.248l31.99-39.986a7.988 7.988 0 0 1 6.248-3c2.438 0 4.734 1.11 6.248 3.008l23.744 29.686a8.012 8.012 0 0 1-1.25 11.246 8.02 8.02 0 0 1-11.246-1.25l-17.496-21.882-25.742 32.178a7.994 7.994 0 0 1-6.248 2.996zM599.818 504.002c-13.23 0-23.994-10.762-23.994-23.992s10.764-23.992 23.994-23.992 23.992 10.762 23.992 23.992-10.762 23.992-23.992 23.992z m0-31.99c-4.404 0-7.998 3.586-7.998 7.998s3.594 7.998 7.998 7.998 7.998-3.586 7.998-7.998-3.594-7.998-7.998-7.998zM631.808 599.972h-47.986a7.992 7.992 0 0 1-7.998-7.996 7.994 7.994 0 0 1 7.998-7.998h47.986a7.992 7.992 0 0 1 7.996 7.998 7.99 7.99 0 0 1-7.996 7.996zM695.79 599.972h-23.992a7.992 7.992 0 0 1-7.998-7.996 7.992 7.992 0 0 1 7.998-7.998h23.992a7.992 7.992 0 0 1 7.996 7.998 7.992 7.992 0 0 1-7.996 7.996zM615.812 663.954a7.99 7.99 0 0 1-7.996-7.996v-31.992a7.99 7.99 0 0 1 7.996-7.996 7.992 7.992 0 0 1 7.998 7.996v31.992a7.992 7.992 0 0 1-7.998 7.996zM727.78 871.89a7.962 7.962 0 0 1-6.388-3.204l-41.598-55.436-41.596 55.436a7.936 7.936 0 0 1-11.186 1.594 7.966 7.966 0 0 1-1.592-11.184l47.968-63.98c3.032-4.032 9.78-4.032 12.808 0l47.97 63.98a7.966 7.966 0 0 1-1.594 11.184 7.856 7.856 0 0 1-4.792 1.61z" fill="" /><path d="M583.822 871.89a8.054 8.054 0 0 1-4.998-1.75 8.01 8.01 0 0 1-1.25-11.246l31.99-39.988a8.006 8.006 0 0 1 12.496 0l23.744 29.694a8.014 8.014 0 0 1-1.25 11.248 8.01 8.01 0 0 1-11.246-1.25l-17.496-21.884-25.742 32.178a7.996 7.996 0 0 1-6.248 2.998zM599.818 807.91c-13.23 0-23.994-10.764-23.994-23.994 0-13.228 10.764-23.992 23.994-23.992s23.992 10.764 23.992 23.992c0 13.23-10.762 23.994-23.992 23.994z m0-31.992a8.014 8.014 0 0 0-7.998 7.998c0 4.406 3.594 7.998 7.998 7.998s7.998-3.592 7.998-7.998a8.014 8.014 0 0 0-7.998-7.998zM551.832 871.89a7.992 7.992 0 0 1-7.996-7.998v-127.96a7.992 7.992 0 0 1 7.996-7.998 7.994 7.994 0 0 1 7.998 7.998v127.96a7.994 7.994 0 0 1-7.998 7.998z" fill="" /><path d="M727.78 743.93h-175.948c-4.42 0-7.996-3.578-7.996-7.998s3.576-7.998 7.996-7.998h175.948c4.42 0 7.998 3.578 7.998 7.998s-3.578 7.998-7.998 7.998z" fill="" /><path d="M727.78 871.89a7.994 7.994 0 0 1-7.998-7.998v-127.96a7.994 7.994 0 0 1 7.998-7.998 7.994 7.994 0 0 1 7.998 7.998v127.96a7.994 7.994 0 0 1-7.998 7.998z" fill="" /><path d="M503.846 695.944H327.9a7.994 7.994 0 0 1-7.998-7.998V432.024a7.992 7.992 0 0 1 7.998-7.996h175.946a7.992 7.992 0 0 1 7.998 7.996v255.922a7.994 7.994 0 0 1-7.998 7.998z m-167.948-15.994h159.952V440.022h-159.952v239.928z" fill="" /><path d="M455.862 663.954h-79.976c-13.23 0-23.992-10.762-23.992-23.992s10.762-23.992 23.992-23.992h79.976c13.23 0 23.992 10.762 23.992 23.992s-10.764 23.992-23.992 23.992z m-79.976-31.992c-4.412 0-7.998 3.594-7.998 7.998s3.586 7.998 7.998 7.998h79.976c4.414 0 7.998-3.594 7.998-7.998s-3.584-7.998-7.998-7.998h-79.976zM503.846 567.982H327.9a7.994 7.994 0 0 1-7.998-7.998 7.992 7.992 0 0 1 7.998-7.996h175.946a7.992 7.992 0 0 1 7.998 7.996 7.994 7.994 0 0 1-7.998 7.998z" fill="" /><path d="M503.854 567.982a7.98 7.98 0 0 1-6.404-3.202l-41.588-55.446-41.588 55.446a7.994 7.994 0 1 1-12.794-9.592l47.986-63.98c3.014-4.03 9.778-4.03 12.792 0l47.986 63.98a7.996 7.996 0 0 1-6.39 12.794z" fill="" /><path d="M359.882 567.982a8.03 8.03 0 0 1-4.992-1.748 8.014 8.014 0 0 1-1.25-11.248l31.99-39.986a8.008 8.008 0 0 1 6.248-3c2.428 0 4.726 1.11 6.248 3.008l23.744 29.686a8.006 8.006 0 0 1-1.258 11.246c-3.444 2.75-8.498 2.188-11.238-1.25l-17.496-21.882-25.742 32.178a8 8 0 0 1-6.254 2.996zM375.886 504.002c-13.23 0-23.992-10.762-23.992-23.992s10.762-23.992 23.992-23.992 23.992 10.762 23.992 23.992-10.762 23.992-23.992 23.992z m0-31.99c-4.412 0-7.998 3.586-7.998 7.998s3.586 7.998 7.998 7.998 7.998-3.586 7.998-7.998-3.586-7.998-7.998-7.998zM407.876 599.972h-47.986a7.992 7.992 0 0 1-7.998-7.996 7.992 7.992 0 0 1 7.998-7.998h47.986a7.994 7.994 0 0 1 7.998 7.998 7.992 7.992 0 0 1-7.998 7.996zM471.856 599.972h-23.992a7.992 7.992 0 0 1-7.998-7.996 7.992 7.992 0 0 1 7.998-7.998h23.992a7.994 7.994 0 0 1 7.998 7.998 7.992 7.992 0 0 1-7.998 7.996zM391.88 663.954a7.992 7.992 0 0 1-7.998-7.996v-31.992c0-4.42 3.576-7.996 7.998-7.996s7.998 3.576 7.998 7.996v31.992a7.992 7.992 0 0 1-7.998 7.996zM503.854 871.89a7.992 7.992 0 0 1-6.404-3.204l-41.588-55.436-41.588 55.436c-2.656 3.532-7.678 4.282-11.2 1.594a7.984 7.984 0 0 1-1.594-11.184l47.986-63.98c3.014-4.032 9.778-4.032 12.792 0l47.986 63.98a7.986 7.986 0 0 1-1.594 11.184 7.868 7.868 0 0 1-4.796 1.61z" fill="" /><path d="M359.882 871.89a8.02 8.02 0 0 1-4.992-1.75 8.012 8.012 0 0 1-1.25-11.246l31.99-39.988a8.032 8.032 0 0 1 6.248-3c2.428 0 4.726 1.11 6.248 3l23.744 29.694a8.008 8.008 0 0 1-1.258 11.248c-3.444 2.748-8.498 2.186-11.238-1.25l-17.496-21.884-25.742 32.178a8 8 0 0 1-6.254 2.998zM375.886 807.91c-13.23 0-23.992-10.764-23.992-23.994 0-13.228 10.762-23.992 23.992-23.992s23.992 10.764 23.992 23.992c0 13.23-10.762 23.994-23.992 23.994z m0-31.992a8.01 8.01 0 0 0-7.998 7.998c0 4.406 3.586 7.998 7.998 7.998s7.998-3.592 7.998-7.998a8.01 8.01 0 0 0-7.998-7.998zM327.9 871.89a7.994 7.994 0 0 1-7.998-7.998v-127.96c0-4.42 3.576-7.998 7.998-7.998s7.998 3.578 7.998 7.998v127.96a7.994 7.994 0 0 1-7.998 7.998z" fill="" /><path d="M503.846 743.93H327.9c-4.42 0-7.998-3.578-7.998-7.998s3.576-7.998 7.998-7.998h175.946c4.42 0 7.998 3.578 7.998 7.998s-3.578 7.998-7.998 7.998z" fill="" /><path d="M503.846 871.89a7.994 7.994 0 0 1-7.998-7.998v-127.96a7.994 7.994 0 0 1 7.998-7.998 7.994 7.994 0 0 1 7.998 7.998v127.96a7.994 7.994 0 0 1-7.998 7.998z" fill="" /><path d="M279.916 695.944H103.97a7.992 7.992 0 0 1-7.998-7.998V432.024a7.992 7.992 0 0 1 7.998-7.996h175.946a7.992 7.992 0 0 1 7.998 7.996v255.922a7.994 7.994 0 0 1-7.998 7.998z m-167.95-15.994h159.95V440.022H111.966v239.928z" fill="" /><path d="M231.93 663.954H151.954c-13.23 0-23.992-10.762-23.992-23.992s10.762-23.992 23.992-23.992h79.976c13.23 0 23.994 10.762 23.994 23.992s-10.764 23.992-23.994 23.992z m-79.976-31.992c-4.412 0-7.998 3.594-7.998 7.998s3.586 7.998 7.998 7.998h79.976c4.414 0 7.998-3.594 7.998-7.998s-3.584-7.998-7.998-7.998H151.954zM279.916 567.982H103.97a7.992 7.992 0 0 1-7.998-7.998 7.992 7.992 0 0 1 7.998-7.996h175.946a7.992 7.992 0 0 1 7.998 7.996 7.994 7.994 0 0 1-7.998 7.998z" fill="" /><path d="M279.922 567.982a7.982 7.982 0 0 1-6.404-3.202l-41.588-55.446-41.59 55.448a7.99 7.99 0 0 1-11.192 1.61 7.998 7.998 0 0 1-1.602-11.202l47.986-63.98c3.014-4.03 9.778-4.03 12.792 0l47.986 63.98a7.994 7.994 0 0 1-6.388 12.792z" fill="" /><path d="M135.952 567.982a8.02 8.02 0 0 1-4.99-1.748 8.014 8.014 0 0 1-1.25-11.248L161.702 515a8.008 8.008 0 0 1 6.248-3c2.428 0 4.726 1.11 6.248 3.008l23.744 29.686a8.006 8.006 0 0 1-1.258 11.246 8.012 8.012 0 0 1-11.238-1.25l-17.496-21.882-25.742 32.178a8.012 8.012 0 0 1-6.256 2.996zM151.954 504.002c-13.23 0-23.992-10.762-23.992-23.992s10.762-23.992 23.992-23.992 23.992 10.762 23.992 23.992-10.762 23.992-23.992 23.992z m0-31.99c-4.412 0-7.998 3.586-7.998 7.998s3.586 7.998 7.998 7.998c4.414 0 7.998-3.586 7.998-7.998s-3.584-7.998-7.998-7.998zM183.944 599.972H135.958a7.992 7.992 0 0 1-7.998-7.996 7.992 7.992 0 0 1 7.998-7.998h47.986a7.994 7.994 0 0 1 7.998 7.998 7.992 7.992 0 0 1-7.998 7.996zM247.924 599.972h-23.992a7.992 7.992 0 0 1-7.998-7.996 7.994 7.994 0 0 1 7.998-7.998h23.992a7.994 7.994 0 0 1 7.998 7.998 7.992 7.992 0 0 1-7.998 7.996zM167.95 663.954a7.992 7.992 0 0 1-7.998-7.996v-31.992c0-4.42 3.576-7.996 7.998-7.996s7.998 3.576 7.998 7.996v31.992a7.996 7.996 0 0 1-7.998 7.996zM279.922 871.89a7.996 7.996 0 0 1-6.404-3.204l-41.588-55.436-41.59 55.438c-2.64 3.532-7.678 4.282-11.2 1.594a7.986 7.986 0 0 1-1.594-11.184l47.986-63.98c3.014-4.032 9.778-4.032 12.792 0l47.986 63.98a7.984 7.984 0 0 1-1.594 11.184 7.864 7.864 0 0 1-4.794 1.608z" fill="" /><path d="M135.952 871.89a8.012 8.012 0 0 1-4.99-1.75 8.012 8.012 0 0 1-1.25-11.246l31.99-39.988a8.032 8.032 0 0 1 6.248-3c2.428 0 4.726 1.11 6.248 3L197.94 848.6a8.008 8.008 0 0 1-1.258 11.248 8.016 8.016 0 0 1-11.238-1.25l-17.496-21.884-25.742 32.178a8.006 8.006 0 0 1-6.254 2.998zM151.954 807.91c-13.23 0-23.992-10.764-23.992-23.994 0-13.228 10.762-23.992 23.992-23.992s23.992 10.764 23.992 23.992c0 13.23-10.762 23.994-23.992 23.994z m0-31.992a8.01 8.01 0 0 0-7.998 7.998 8.008 8.008 0 0 0 7.998 7.998 8.008 8.008 0 0 0 7.998-7.998 8.008 8.008 0 0 0-7.998-7.998zM103.97 871.89a7.994 7.994 0 0 1-7.998-7.998v-127.96a7.994 7.994 0 0 1 7.998-7.998 7.994 7.994 0 0 1 7.998 7.998v127.96a7.996 7.996 0 0 1-7.998 7.998z" fill="" /><path d="M279.916 743.93H103.97c-4.422 0-7.998-3.578-7.998-7.998s3.576-7.998 7.998-7.998h175.946c4.42 0 7.998 3.578 7.998 7.998s-3.58 7.998-7.998 7.998z" fill="" /><path d="M279.916 871.89a7.994 7.994 0 0 1-7.998-7.998v-127.96c0-4.42 3.578-7.998 7.998-7.998s7.998 3.578 7.998 7.998v127.96c0 4.42-3.58 7.998-7.998 7.998z" fill="" /><path d="M855.738 855.894h-47.984c-4.42 0-7.996-3.578-7.996-7.998s3.576-7.998 7.996-7.998h47.984c4.422 0 7.998 3.578 7.998 7.998s-3.576 7.998-7.998 7.998z" fill="" /><path d="M775.764 871.89a7.994 7.994 0 0 1-7.998-7.998v-47.986c0-4.42 3.578-7.996 7.998-7.996s7.998 3.576 7.998 7.996v47.986a7.994 7.994 0 0 1-7.998 7.998z" fill="" /><path d="M919.718 823.904h-143.956a7.994 7.994 0 0 1-7.998-7.998 7.992 7.992 0 0 1 7.998-7.996h143.956a7.992 7.992 0 0 1 7.998 7.996 7.992 7.992 0 0 1-7.998 7.998z" fill="" /><path d="M919.718 871.89a7.992 7.992 0 0 1-7.996-7.998v-47.986a7.99 7.99 0 0 1 7.996-7.996 7.992 7.992 0 0 1 7.998 7.996v47.986a7.994 7.994 0 0 1-7.998 7.998z" fill="" /><path d="M791.76 200.096H247.924a7.994 7.994 0 0 1-7.998-7.998v-63.98a7.992 7.992 0 0 1 7.998-7.996H791.76a7.992 7.992 0 0 1 7.998 7.996v63.98a7.994 7.994 0 0 1-7.998 7.998z m-535.838-15.994H783.76V136.116H255.922v47.986z" fill="" /><path d="M311.906 232.086a7.994 7.994 0 0 1-7.998-7.998V192.098c0-4.42 3.578-7.996 7.998-7.996s7.998 3.576 7.998 7.996v31.99a7.994 7.994 0 0 1-7.998 7.998zM727.78 232.086a7.992 7.992 0 0 1-7.998-7.998V192.098a7.992 7.992 0 0 1 7.998-7.996 7.992 7.992 0 0 1 7.998 7.996v31.99a7.994 7.994 0 0 1-7.998 7.998z" fill="" /><path d="M727.78 168.106H295.91a7.994 7.994 0 0 1-7.998-7.998 7.992 7.992 0 0 1 7.998-7.996H727.78a7.992 7.992 0 0 1 7.998 7.996 7.994 7.994 0 0 1-7.998 7.998z" fill="" /></svg>